<?xml version="1.0" encoding="UTF-8" standalone="no"?><!-- Generator: Gravit.io --><svg xmlns="http://www.w3.org/2000/svg" xmlns:xlink="http://www.w3.org/1999/xlink" style="isolation:isolate" viewBox="0 0 130 130" width="130pt" height="130pt"><defs><clipPath id="_clipPath_N0o6drAtHsVxKLsH0tUgSvDkyO0eZq1y"><rect width="130" height="130"/></clipPath></defs><g clip-path="url(#_clipPath_N0o6drAtHsVxKLsH0tUgSvDkyO0eZq1y)"><g style="isolation:isolate"><ellipse vector-effect="non-scaling-stroke" cx="59.34009276041135" cy="66.17034774656292" rx="26" ry="8.75" fill="rgb(232,151,0)"/><path d=" M 85.178 55.738 Q 91.975 58.043 94.34 61.67 L 94.34 82.67 C 94.34 100.332 80.001 114.67 62.34 114.67 L 54.107 114.67 C 36.575 114.67 22.34 100.436 22.34 82.903 L 22.34 61.67 L 22.34 61.67 Q 28.026 53.888 47.34 52.17 C 47.856 52.124 48.422 52.087 49.026 52.056 C 38.614 53.673 31.34 57.372 31.34 61.67 C 31.34 67.465 44.559 72.17 60.84 72.17 C 77.122 72.17 90.34 67.465 90.34 61.67 C 90.34 59.47 88.434 57.426 85.178 55.738 Z " fill="rgb(58,45,39)"/><path d=" M 88.764 75.604 C 92.362 66.211 99.013 60.013 103.607 61.773 C 108.202 63.532 109.01 72.587 105.413 81.981 C 101.815 91.374 95.164 97.572 90.57 95.813 C 85.976 94.053 85.167 84.998 88.764 75.604 Z  M 91.104 77.165 C 93.23 71.614 97.135 67.943 99.819 68.971 C 102.503 69.999 102.956 75.34 100.83 80.89 C 98.705 86.441 94.799 90.112 92.115 89.084 C 89.431 88.056 88.978 82.715 91.104 77.165 Z " fill-rule="evenodd" fill="rgb(58,45,39)"/><path d=" M 44.049 49.011 Q 36.532 46.181 34.462 41.25 C 32.393 36.32 39.999 32.357 42.223 28.468 C 44.659 24.209 40.945 22.138 38.571 20.708 Q 36.197 19.277 36.288 19.338 Q 49.087 19.105 50.44 25.273 C 51.811 31.523 41.989 35.439 40.853 39.424 Q 40.034 42.3 44.049 49.011 Z " fill="rgb(232,151,0)"/><path d=" M 63.549 45.011 Q 56.032 42.181 53.962 37.25 C 51.893 32.32 59.499 28.357 61.723 24.468 C 64.159 20.209 60.445 18.138 58.071 16.708 Q 55.697 15.277 55.788 15.338 Q 68.587 15.105 69.94 21.273 C 71.311 27.523 61.489 31.439 60.353 35.424 Q 59.534 38.3 63.549 45.011 Z " fill="rgb(232,151,0)"/><path d=" M 83.049 52.011 Q 75.532 49.181 73.462 44.25 C 71.393 39.32 78.999 35.357 81.223 31.468 C 83.659 27.209 79.945 25.138 77.571 23.708 Q 75.197 22.277 75.288 22.338 Q 88.087 22.105 89.44 28.273 C 90.811 34.523 80.989 38.439 79.853 42.424 Q 79.034 45.3 83.049 52.011 Z " fill="rgb(232,151,0)"/></g></g></svg>