<?xml version="1.0" encoding="UTF-8" standalone="no"?><!-- Generator: Gravit.io --><svg xmlns="http://www.w3.org/2000/svg" xmlns:xlink="http://www.w3.org/1999/xlink" style="isolation:isolate" viewBox="0 0 290 172" width="290pt" height="172pt"><defs><clipPath id="_clipPath_cSzABmHduSZTzcCyovcfDy9XSAbMX1uf"><rect width="290" height="172"/></clipPath></defs><g clip-path="url(#_clipPath_cSzABmHduSZTzcCyovcfDy9XSAbMX1uf)"><path d=" M 208.988 134.5 L 208.988 52.444 L 223.548 52.444 L 223.548 134.5 L 208.988 134.5 L 208.988 134.5 Z  M 249.204 156.34 L 235.164 156.34 L 265.428 89.052 L 278.532 89.052 L 249.204 156.34 L 249.204 156.34 Z  M 258.564 127.428 L 247.332 134.708 L 225.076 89.052 L 241.404 89.052 L 258.564 127.428 L 258.564 127.428 Z " fill="rgb(0,0,0)"/><path d=" M 192.172 127.012 L 192.172 127.012 L 192.172 127.012 Q 192.172 123.788 194.512 121.604 L 194.512 121.604 L 194.512 121.604 Q 196.852 119.42 199.66 119.42 L 199.66 119.42 L 199.66 119.42 Q 202.26 119.42 204.6 121.604 L 204.6 121.604 L 204.6 121.604 Q 206.94 123.788 206.94 127.012 L 206.94 127.012 L 206.94 127.012 Q 206.94 130.444 204.6 132.472 L 204.6 132.472 L 204.6 132.472 Q 202.26 134.5 199.66 134.5 L 199.66 134.5 L 199.66 134.5 Q 196.852 134.5 194.512 132.472 L 194.512 132.472 L 194.512 132.472 Q 192.172 130.444 192.172 127.012 L 192.172 127.012 L 192.172 127.012 Z " fill="rgb(232,151,0)"/><path d=" M 47.22 121.292 L 54.5 130.444 L 54.5 130.444 Q 51.484 132.836 46.96 134.292 L 46.96 134.292 L 46.96 134.292 Q 42.436 135.748 38.068 135.748 L 38.068 135.748 L 38.068 135.748 Q 30.268 135.748 24.496 132.888 L 24.496 132.888 L 24.496 132.888 Q 18.724 130.028 15.552 124.672 L 15.552 124.672 L 15.552 124.672 Q 12.38 119.316 12.38 111.724 L 12.38 111.724 L 12.38 111.724 Q 12.38 104.132 15.812 98.776 L 15.812 98.776 L 15.812 98.776 Q 19.244 93.42 24.808 90.612 L 24.808 90.612 L 24.808 90.612 Q 30.372 87.804 36.508 87.804 L 36.508 87.804 L 36.508 87.804 Q 42.644 87.804 47.168 89.468 L 47.168 89.468 L 47.168 89.468 Q 51.692 91.132 54.916 93.836 L 54.916 93.836 L 47.844 103.196 L 47.844 103.196 Q 46.388 102.052 43.84 100.856 L 43.84 100.856 L 43.84 100.856 Q 41.292 99.66 37.86 99.66 L 37.86 99.66 L 37.86 99.66 Q 34.844 99.66 32.348 101.22 L 32.348 101.22 L 32.348 101.22 Q 29.852 102.78 28.396 105.484 L 28.396 105.484 L 28.396 105.484 Q 26.94 108.188 26.94 111.724 L 26.94 111.724 L 26.94 111.724 Q 26.94 115.052 28.5 117.86 L 28.5 117.86 L 28.5 117.86 Q 30.06 120.668 32.816 122.28 L 32.816 122.28 L 32.816 122.28 Q 35.572 123.892 39.316 123.892 L 39.316 123.892 L 39.316 123.892 Q 41.708 123.892 43.736 123.216 L 43.736 123.216 L 43.736 123.216 Q 45.764 122.54 47.22 121.292 L 47.22 121.292 L 47.22 121.292 Z  M 77.868 135.748 L 77.868 135.748 L 77.868 135.748 Q 71.524 135.748 66.376 133.2 L 66.376 133.2 L 66.376 133.2 Q 61.228 130.652 58.212 125.348 L 58.212 125.348 L 58.212 125.348 Q 55.196 120.044 55.196 111.828 L 55.196 111.828 L 55.196 111.828 Q 55.196 104.132 58.316 98.516 L 58.316 98.516 L 58.316 98.516 Q 61.436 92.9 66.532 89.832 L 66.532 89.832 L 66.532 89.832 Q 71.628 86.764 77.348 86.764 L 77.348 86.764 L 77.348 86.764 Q 84.108 86.764 87.592 89 L 87.592 89 L 87.592 89 Q 91.076 91.236 93.364 93.94 L 93.364 93.94 L 92.74 95.708 L 94.092 89.052 L 107.612 89.052 L 107.612 134.5 L 93.052 134.5 L 93.052 124.62 L 94.196 127.74 L 94.196 127.74 Q 93.988 127.74 92.948 128.936 L 92.948 128.936 L 92.948 128.936 Q 91.908 130.132 89.88 131.744 L 89.88 131.744 L 89.88 131.744 Q 87.852 133.356 84.888 134.552 L 84.888 134.552 L 84.888 134.552 Q 81.924 135.748 77.868 135.748 Z  M 82.028 123.892 L 82.028 123.892 L 82.028 123.892 Q 84.628 123.892 86.708 123.112 L 86.708 123.112 L 86.708 123.112 Q 88.788 122.332 90.348 120.824 L 90.348 120.824 L 90.348 120.824 Q 91.908 119.316 93.052 117.028 L 93.052 117.028 L 93.052 105.9 L 93.052 105.9 Q 92.22 103.612 90.556 102 L 90.556 102 L 90.556 102 Q 88.892 100.388 86.604 99.504 L 86.604 99.504 L 86.604 99.504 Q 84.316 98.62 81.508 98.62 L 81.508 98.62 L 81.508 98.62 Q 78.388 98.62 75.736 100.232 L 75.736 100.232 L 75.736 100.232 Q 73.084 101.844 71.524 104.652 L 71.524 104.652 L 71.524 104.652 Q 69.964 107.46 69.964 111.1 L 69.964 111.1 L 69.964 111.1 Q 69.964 114.74 71.628 117.652 L 71.628 117.652 L 71.628 117.652 Q 73.292 120.564 76.048 122.228 L 76.048 122.228 L 76.048 122.228 Q 78.804 123.892 82.028 123.892 Z  M 134.516 134.5 L 119.956 134.5 L 119.956 101.74 L 112.26 101.74 L 112.26 88.844 L 119.956 88.844 L 119.956 73.036 L 119.956 73.036 Q 119.956 64.092 125.104 58.424 L 125.104 58.424 L 125.104 58.424 Q 130.252 52.756 140.028 52.756 L 140.028 52.756 L 140.028 52.756 Q 142.94 52.756 146.528 53.64 L 146.528 53.64 L 146.528 53.64 Q 150.116 54.524 152.82 56.5 L 152.82 56.5 L 146.684 67.004 L 146.684 67.004 Q 145.644 65.652 144.24 65.184 L 144.24 65.184 L 144.24 65.184 Q 142.836 64.716 141.588 64.716 L 141.588 64.716 L 141.588 64.716 Q 138.468 64.716 136.492 66.796 L 136.492 66.796 L 136.492 66.796 Q 134.516 68.876 134.516 73.452 L 134.516 73.452 L 134.516 88.844 L 148.244 88.844 L 148.244 101.74 L 134.516 101.74 L 134.516 134.5 L 134.516 134.5 Z  M 173.068 135.748 L 173.068 135.748 L 173.068 135.748 Q 164.748 135.748 158.976 132.628 L 158.976 132.628 L 158.976 132.628 Q 153.204 129.508 150.188 123.996 L 150.188 123.996 L 150.188 123.996 Q 147.172 118.484 147.172 111.308 L 147.172 111.308 L 147.172 111.308 Q 147.172 104.444 150.708 98.932 L 150.708 98.932 L 150.708 98.932 Q 154.244 93.42 160.172 90.144 L 160.172 90.144 L 160.172 90.144 Q 166.1 86.868 173.38 86.868 L 173.38 86.868 L 173.38 86.868 Q 183.156 86.868 189.448 92.536 L 189.448 92.536 L 189.448 92.536 Q 195.74 98.204 197.612 108.916 L 197.612 108.916 L 162.252 120.148 L 159.028 112.244 L 184.612 103.612 L 181.596 104.964 L 181.596 104.964 Q 180.764 102.26 178.632 100.232 L 178.632 100.232 L 178.632 100.232 Q 176.5 98.204 172.236 98.204 L 172.236 98.204 L 172.236 98.204 Q 169.012 98.204 166.568 99.712 L 166.568 99.712 L 166.568 99.712 Q 164.124 101.22 162.824 103.976 L 162.824 103.976 L 162.824 103.976 Q 161.524 106.732 161.524 110.476 L 161.524 110.476 L 161.524 110.476 Q 161.524 114.74 163.084 117.6 L 163.084 117.6 L 163.084 117.6 Q 164.644 120.46 167.348 121.916 L 167.348 121.916 L 167.348 121.916 Q 170.052 123.372 173.38 123.372 L 173.38 123.372 L 173.38 123.372 Q 175.772 123.372 178.008 122.54 L 178.008 122.54 L 178.008 122.54 Q 180.244 121.708 182.428 120.356 L 182.428 120.356 L 188.876 131.172 L 188.876 131.172 Q 185.236 133.252 181.024 134.5 L 181.024 134.5 L 181.024 134.5 Q 176.812 135.748 173.068 135.748 Z " fill="rgb(0,0,0)"/><path d=" M 96.147 78.019 Q 79.681 71.819 75.147 61.019 C 70.614 50.219 87.275 41.537 92.147 33.019 C 97.483 23.689 89.347 19.152 84.147 16.019 Q 78.947 12.885 79.147 13.019 Q 107.184 12.508 110.147 26.019 C 113.15 39.709 91.634 48.287 89.147 57.019 Q 87.353 63.318 96.147 78.019 Z " fill="rgb(232,151,0)"/></g></svg>