<?xml version="1.0" encoding="UTF-8" standalone="no"?><!-- Generator: Gravit.io --><svg xmlns="http://www.w3.org/2000/svg" xmlns:xlink="http://www.w3.org/1999/xlink" style="isolation:isolate" viewBox="0 0 145 145" width="145pt" height="145pt"><defs><clipPath id="_clipPath_U4r3pkGn9CKlqnLjfq0sAvmaUu2zQpoT"><rect width="145" height="145"/></clipPath></defs><g clip-path="url(#_clipPath_U4r3pkGn9CKlqnLjfq0sAvmaUu2zQpoT)"><g opacity="0"><ellipse vector-effect="non-scaling-stroke" cx="72.5" cy="60.49999999999999" rx="85.49999999999994" ry="58.50000000000001" fill="rgb(235,235,235)"/></g><path d=" M 101.806 133.374 L 95.897 105.591 L 100.827 104.542 L 106.735 132.325 L 101.806 133.374 L 101.806 133.374 Z  M 120.172 136.106 L 115.616 137.798 L 117.327 112.316 L 121.579 110.736 L 120.172 136.106 L 120.172 136.106 Z  M 119.725 125.596 L 116.957 129.312 L 104.233 117.179 L 109.531 115.211 L 119.725 125.596 L 119.725 125.596 Z " fill="rgb(0,0,0)"/><path d=" M 93.315 132.315 L 93.315 132.315 L 93.315 132.315 Q 93.148 131.211 93.836 130.343 L 93.836 130.343 L 93.836 130.343 Q 94.524 129.474 95.485 129.328 L 95.485 129.328 L 95.485 129.328 Q 96.374 129.194 97.289 129.82 L 97.289 129.82 L 97.289 129.82 Q 98.203 130.446 98.37 131.549 L 98.37 131.549 L 98.37 131.549 Q 98.548 132.724 97.852 133.539 L 97.852 133.539 L 97.852 133.539 Q 97.156 134.355 96.266 134.489 L 96.266 134.489 L 96.266 134.489 Q 95.305 134.635 94.399 134.062 L 94.399 134.062 L 94.399 134.062 Q 93.493 133.489 93.315 132.315 L 93.315 132.315 L 93.315 132.315 Z " fill="rgb(232,151,0)"/><path d=" M 35.933 126.942 L 37.192 130.789 L 37.192 130.789 Q 35.925 131.202 34.281 131.129 L 34.281 131.129 L 34.281 131.129 Q 32.638 131.056 31.22 130.53 L 31.22 130.53 L 31.22 130.53 Q 28.689 129.59 27.161 127.966 L 27.161 127.966 L 27.161 127.966 Q 25.633 126.342 25.249 124.222 L 25.249 124.222 L 25.249 124.222 Q 24.865 122.102 25.78 119.638 L 25.78 119.638 L 25.78 119.638 Q 26.695 117.175 28.454 115.85 L 28.454 115.85 L 28.454 115.85 Q 30.214 114.526 32.358 114.285 L 32.358 114.285 L 32.358 114.285 Q 34.501 114.045 36.493 114.784 L 36.493 114.784 L 36.493 114.784 Q 38.484 115.524 39.751 116.609 L 39.751 116.609 L 39.751 116.609 Q 41.019 117.694 41.739 118.96 L 41.739 118.96 L 38.316 121.145 L 38.316 121.145 Q 37.981 120.598 37.299 119.903 L 37.299 119.903 L 37.299 119.903 Q 36.616 119.208 35.502 118.794 L 35.502 118.794 L 35.502 118.794 Q 34.524 118.431 33.526 118.636 L 33.526 118.636 L 33.526 118.636 Q 32.528 118.842 31.729 119.544 L 31.729 119.544 L 31.729 119.544 Q 30.931 120.246 30.505 121.393 L 30.505 121.393 L 30.505 121.393 Q 30.104 122.473 30.272 123.572 L 30.272 123.572 L 30.272 123.572 Q 30.439 124.671 31.139 125.526 L 31.139 125.526 L 31.139 125.526 Q 31.839 126.382 33.054 126.833 L 33.054 126.833 L 33.054 126.833 Q 33.831 127.121 34.57 127.146 L 34.57 127.146 L 34.57 127.146 Q 35.31 127.171 35.933 126.942 L 35.933 126.942 L 35.933 126.942 Z  M 47.004 134.426 L 47.004 134.426 L 47.004 134.426 Q 44.856 133.969 43.297 132.736 L 43.297 132.736 L 43.297 132.736 Q 41.737 131.502 41.098 129.489 L 41.098 129.489 L 41.098 129.489 Q 40.458 127.476 41.05 124.694 L 41.05 124.694 L 41.05 124.694 Q 41.604 122.089 43.065 120.412 L 43.065 120.412 L 43.065 120.412 Q 44.526 118.735 46.472 118.063 L 46.472 118.063 L 46.472 118.063 Q 48.418 117.391 50.355 117.803 L 50.355 117.803 L 50.355 117.803 Q 52.644 118.29 53.662 119.298 L 53.662 119.298 L 53.662 119.298 Q 54.681 120.306 55.261 121.386 L 55.261 121.386 L 54.923 121.94 L 55.86 119.783 L 60.437 120.757 L 57.165 136.145 L 52.235 135.096 L 52.946 131.751 L 53.109 132.89 L 53.109 132.89 Q 53.039 132.875 52.6 133.205 L 52.6 133.205 L 52.6 133.205 Q 52.162 133.535 51.359 133.935 L 51.359 133.935 L 51.359 133.935 Q 50.557 134.335 49.467 134.526 L 49.467 134.526 L 49.467 134.526 Q 48.377 134.718 47.004 134.426 Z  M 49.266 130.711 L 49.266 130.711 L 49.266 130.711 Q 50.147 130.898 50.907 130.784 L 50.907 130.784 L 50.907 130.784 Q 51.667 130.67 52.304 130.271 L 52.304 130.271 L 52.304 130.271 Q 52.941 129.873 53.493 129.181 L 53.493 129.181 L 54.294 125.413 L 54.294 125.413 Q 54.177 124.578 53.73 123.913 L 53.73 123.913 L 53.73 123.913 Q 53.283 123.247 52.572 122.783 L 52.572 122.783 L 52.572 122.783 Q 51.861 122.319 50.91 122.117 L 50.91 122.117 L 50.91 122.117 Q 49.854 121.892 48.84 122.247 L 48.84 122.247 L 48.84 122.247 Q 47.826 122.602 47.095 123.44 L 47.095 123.44 L 47.095 123.44 Q 46.365 124.279 46.103 125.511 L 46.103 125.511 L 46.103 125.511 Q 45.841 126.744 46.194 127.849 L 46.194 127.849 L 46.194 127.849 Q 46.548 128.955 47.361 129.717 L 47.361 129.717 L 47.361 129.717 Q 48.175 130.479 49.266 130.711 Z  M 68.973 136.406 L 63.945 136.059 L 64.726 124.746 L 62.069 124.562 L 62.376 120.109 L 65.034 120.293 L 65.411 114.834 L 65.411 114.834 Q 65.625 111.745 67.538 109.91 L 67.538 109.91 L 67.538 109.91 Q 69.451 108.076 72.827 108.309 L 72.827 108.309 L 72.827 108.309 Q 73.832 108.379 75.05 108.769 L 75.05 108.769 L 75.05 108.769 Q 76.268 109.16 77.155 109.907 L 77.155 109.907 L 74.785 113.388 L 74.785 113.388 Q 74.458 112.896 73.985 112.701 L 73.985 112.701 L 73.985 112.701 Q 73.511 112.506 73.08 112.476 L 73.08 112.476 L 73.08 112.476 Q 72.002 112.402 71.27 113.073 L 71.27 113.073 L 71.27 113.073 Q 70.538 113.744 70.429 115.325 L 70.429 115.325 L 70.062 120.64 L 74.803 120.967 L 74.495 125.421 L 69.754 125.093 L 68.973 136.406 L 68.973 136.406 Z  M 84.756 136.301 L 84.756 136.301 L 84.756 136.301 Q 81.883 136.5 79.815 135.56 L 79.815 135.56 L 79.815 135.56 Q 77.748 134.62 76.575 132.789 L 76.575 132.789 L 76.575 132.789 Q 75.402 130.957 75.23 128.479 L 75.23 128.479 L 75.23 128.479 Q 75.067 126.109 76.156 124.121 L 76.156 124.121 L 76.156 124.121 Q 77.246 122.133 79.215 120.86 L 79.215 120.86 L 79.215 120.86 Q 81.184 119.588 83.698 119.414 L 83.698 119.414 L 83.698 119.414 Q 87.074 119.181 89.382 120.988 L 89.382 120.988 L 89.382 120.988 Q 91.69 122.795 92.592 126.45 L 92.592 126.45 L 80.649 131.172 L 79.347 128.519 L 87.976 124.928 L 86.967 125.467 L 86.967 125.467 Q 86.615 124.553 85.83 123.904 L 85.83 123.904 L 85.83 123.904 Q 85.046 123.254 83.573 123.356 L 83.573 123.356 L 83.573 123.356 Q 82.46 123.433 81.652 124.012 L 81.652 124.012 L 81.652 124.012 Q 80.844 124.591 80.461 125.574 L 80.461 125.574 L 80.461 125.574 Q 80.077 126.556 80.167 127.849 L 80.167 127.849 L 80.167 127.849 Q 80.268 129.322 80.875 130.272 L 80.875 130.272 L 80.875 130.272 Q 81.482 131.223 82.451 131.661 L 82.451 131.661 L 82.451 131.661 Q 83.419 132.099 84.569 132.02 L 84.569 132.02 L 84.569 132.02 Q 85.395 131.963 86.147 131.622 L 86.147 131.622 L 86.147 131.622 Q 86.899 131.282 87.621 130.763 L 87.621 130.763 L 90.106 134.344 L 90.106 134.344 Q 88.899 135.149 87.474 135.68 L 87.474 135.68 L 87.474 135.68 Q 86.049 136.212 84.756 136.301 Z " fill="rgb(0,0,0)"/><ellipse vector-effect="non-scaling-stroke" cx="69.99999999999994" cy="57.50000000000003" rx="26" ry="8.750000000000004" fill="rgb(232,151,0)"/><path d=" M 95.838 47.068 Q 102.635 49.373 105 53 L 105 74 C 105 91.661 90.661 106 73 106 L 64.767 106 C 47.234 106 33 91.766 33 74.233 L 33 53 L 33 53 Q 38.686 45.217 58 43.5 C 58.516 43.454 59.082 43.416 59.686 43.385 C 49.274 45.002 42 48.701 42 53 C 42 58.795 55.219 63.5 71.5 63.5 C 87.781 63.5 101 58.795 101 53 C 101 50.799 99.094 48.756 95.838 47.068 Z " fill="rgb(58,45,39)"/><path d=" M 99.424 66.934 C 103.022 57.54 109.673 51.343 114.267 53.102 C 118.861 54.862 119.67 63.917 116.073 73.31 C 112.475 82.704 105.824 88.902 101.23 87.142 C 96.635 85.383 95.826 76.328 99.424 66.934 Z  M 101.764 68.494 C 103.89 62.944 107.795 59.272 110.479 60.3 C 113.163 61.328 113.616 66.669 111.49 72.22 C 109.364 77.77 105.459 81.442 102.775 80.414 C 100.091 79.386 99.638 74.045 101.764 68.494 Z " fill-rule="evenodd" fill="rgb(58,45,39)"/><path d=" M 54.709 40.341 Q 47.192 37.51 45.122 32.58 C 43.053 27.65 50.659 23.687 52.883 19.798 C 55.319 15.539 51.605 13.468 49.231 12.037 Q 46.857 10.607 46.948 10.668 Q 59.747 10.435 61.1 16.602 C 62.471 22.852 52.649 26.768 51.513 30.754 Q 50.694 33.63 54.709 40.341 Z " fill="rgb(232,151,0)"/><path d=" M 74.209 36.341 Q 66.692 33.51 64.622 28.58 C 62.553 23.65 70.159 19.687 72.383 15.798 C 74.819 11.539 71.105 9.468 68.731 8.037 Q 66.357 6.607 66.448 6.668 Q 79.247 6.435 80.6 12.602 C 81.971 18.852 72.149 22.768 71.013 26.754 Q 70.194 29.63 74.209 36.341 Z " fill="rgb(232,151,0)"/><path d=" M 93.709 43.341 Q 86.192 40.51 84.122 35.58 C 82.053 30.65 89.659 26.687 91.883 22.798 C 94.319 18.539 90.605 16.468 88.231 15.037 Q 85.857 13.607 85.948 13.668 Q 98.747 13.435 100.1 19.602 C 101.471 25.852 91.649 29.768 90.513 33.754 Q 89.694 36.63 93.709 43.341 Z " fill="rgb(232,151,0)"/></g></svg>