<?xml version="1.0" encoding="UTF-8" standalone="no"?><!-- Generator: Gravit.io --><svg xmlns="http://www.w3.org/2000/svg" xmlns:xlink="http://www.w3.org/1999/xlink" style="isolation:isolate" viewBox="0 0 290 172" width="290pt" height="172pt"><defs><clipPath id="_clipPath_xv8vOmaWdQAbTwbhX8WLRtj95N7Z5ZSd"><rect width="290" height="172"/></clipPath></defs><g clip-path="url(#_clipPath_xv8vOmaWdQAbTwbhX8WLRtj95N7Z5ZSd)"><g clip-path="url(#_clipPath_rq5o7sGtB4HIxhdAA9wKsBWVFRCArayq)"><text transform="matrix(1,0,0,1,8.428,134.5)" style="font-family:'Josefin Sans';font-weight:700;font-size:104px;font-style:normal;letter-spacing:-7;fill:#000000;stroke:none;">cafe</text><text transform="matrix(1,0,0,1,190.612,134.5)" style="font-family:'Josefin Sans';font-weight:700;font-size:104px;font-style:normal;letter-spacing:-7;fill:#e89700;stroke:none;">.</text><text transform="matrix(1,0,0,1,201.5,134.5)" style="font-family:'Josefin Sans';font-weight:700;font-size:104px;font-style:normal;letter-spacing:-7;fill:#000000;stroke:none;">ly</text></g><defs><clipPath id="_clipPath_rq5o7sGtB4HIxhdAA9wKsBWVFRCArayq"><rect x="0" y="0" width="419" height="191" transform="matrix(1,0,0,1,-64.5,13)"/></clipPath></defs><path d=" M 96.147 78.019 Q 79.681 71.819 75.147 61.019 C 70.614 50.219 87.275 41.537 92.147 33.019 C 97.483 23.689 89.347 19.152 84.147 16.019 Q 78.947 12.885 79.147 13.019 Q 107.184 12.508 110.147 26.019 C 113.15 39.709 91.634 48.287 89.147 57.019 Q 87.353 63.318 96.147 78.019 Z " fill="rgb(232,151,0)"/></g></svg>