<?xml version="1.0" encoding="UTF-8" standalone="no"?><!-- Generator: Gravit.io --><svg xmlns="http://www.w3.org/2000/svg" xmlns:xlink="http://www.w3.org/1999/xlink" style="isolation:isolate" viewBox="0 0 105 105" width="105pt" height="105pt"><defs><clipPath id="_clipPath_JSCXFd2AhX5HumTWhJeK1gRj9Jlh69y4"><rect width="105" height="105"/></clipPath></defs><g clip-path="url(#_clipPath_JSCXFd2AhX5HumTWhJeK1gRj9Jlh69y4)"><ellipse vector-effect="non-scaling-stroke" cx="46.84009276041131" cy="53.670347746562925" rx="26" ry="8.75" fill="rgb(232,151,0)"/><path d=" M 72.678 43.238 Q 79.475 45.543 81.84 49.17 L 81.84 70.17 C 81.84 87.832 67.501 102.17 49.84 102.17 L 41.607 102.17 C 24.075 102.17 9.84 87.936 9.84 70.403 L 9.84 49.17 L 9.84 49.17 Q 15.526 41.388 34.84 39.67 C 35.356 39.624 35.922 39.587 36.526 39.556 C 26.114 41.173 18.84 44.872 18.84 49.17 C 18.84 54.965 32.059 59.67 48.34 59.67 C 64.622 59.67 77.84 54.965 77.84 49.17 C 77.84 46.97 75.934 44.926 72.678 43.238 Z " fill="rgb(58,45,39)"/><path d=" M 76.264 63.104 C 79.862 53.711 86.513 47.513 91.107 49.273 C 95.702 51.032 96.51 60.087 92.913 69.481 C 89.315 78.874 82.664 85.072 78.07 83.313 C 73.476 81.553 72.667 72.498 76.264 63.104 Z  M 78.604 64.665 C 80.73 59.114 84.635 55.443 87.319 56.471 C 90.003 57.499 90.456 62.84 88.33 68.39 C 86.205 73.941 82.299 77.612 79.615 76.584 C 76.931 75.556 76.478 70.215 78.604 64.665 Z " fill-rule="evenodd" fill="rgb(58,45,39)"/><path d=" M 31.549 36.511 Q 24.032 33.681 21.962 28.75 C 19.893 23.82 27.499 19.857 29.723 15.968 C 32.159 11.709 28.445 9.638 26.071 8.208 Q 23.697 6.777 23.788 6.838 Q 36.587 6.605 37.94 12.773 C 39.311 19.023 29.489 22.939 28.353 26.924 Q 27.534 29.8 31.549 36.511 Z " fill="rgb(232,151,0)"/><path d=" M 51.049 32.511 Q 43.532 29.681 41.462 24.75 C 39.393 19.82 46.999 15.857 49.223 11.968 C 51.659 7.709 47.945 5.638 45.571 4.208 Q 43.197 2.777 43.288 2.838 Q 56.087 2.605 57.44 8.773 C 58.811 15.023 48.989 18.939 47.853 22.924 Q 47.034 25.8 51.049 32.511 Z " fill="rgb(232,151,0)"/><path d=" M 70.549 39.511 Q 63.032 36.681 60.962 31.75 C 58.893 26.82 66.499 22.857 68.723 18.968 C 71.159 14.709 67.445 12.638 65.071 11.208 Q 62.697 9.777 62.788 9.838 Q 75.587 9.605 76.94 15.773 C 78.311 22.023 68.489 25.939 67.353 29.924 Q 66.534 32.8 70.549 39.511 Z " fill="rgb(232,151,0)"/></g></svg>